<svg width="983" height="138" viewBox="0 0 983 138" fill="none" xmlns="http://www.w3.org/2000/svg">
<path d="M136.512 25.416C138.901 25.416 140.096 26.44 140.096 28.488C140.096 29.4267 139.797 30.4507 139.2 31.56L107.2 86.856C106.176 88.5627 104.725 90.0133 102.848 91.208C100.971 92.4027 99.1787 93 97.472 93H54.464C52.8427 93 51.0507 93.5973 49.088 94.792C47.2107 95.9867 45.8027 97.4373 44.864 99.144L24.512 134.472C23.232 136.691 21.8667 137.8 20.416 137.8C19.648 137.8 19.008 137.373 18.496 136.52L1.6 107.72C1.00267 106.867 0.704 105.672 0.704 104.136C0.704 102.003 1.216 100.083 2.24 98.376L40.896 31.56C41.8347 29.8533 43.2427 28.4027 45.12 27.208C46.9973 26.0133 48.7893 25.416 50.496 25.416H136.512ZM92.608 37.704C93.2053 36.5947 93.504 35.5707 93.504 34.632C93.504 32.584 92.352 31.56 90.048 31.56C88.3413 31.56 86.5067 32.1573 84.544 33.352C82.6667 34.5467 81.2587 35.9973 80.32 37.704L55.488 80.712C54.8053 81.9067 54.464 82.9307 54.464 83.784C54.464 85.832 55.6587 86.856 58.048 86.856C59.7547 86.856 61.5467 86.2587 63.424 85.064C65.3013 83.8693 66.752 82.4187 67.776 80.712L92.608 37.704ZM177.506 62.28C175.543 62.28 173.666 62.8773 171.874 64.072C170.167 65.2667 168.845 66.7173 167.906 68.424L160.738 80.712C160.141 81.8213 159.842 82.8453 159.842 83.784C159.842 85.832 160.994 86.856 163.298 86.856C165.005 86.856 166.797 86.2587 168.674 85.064C170.551 83.8693 172.002 82.4187 173.026 80.712L176.61 74.568C177.549 72.8613 178.914 71.4107 180.706 70.216C182.498 69.0213 184.375 68.424 186.338 68.424H217.058C219.362 68.424 220.514 69.448 220.514 71.496C220.514 72.4347 220.215 73.4587 219.618 74.568L212.45 86.856C211.426 88.5627 209.975 90.0133 208.098 91.208C206.221 92.4027 204.471 93 202.85 93H116.834C114.445 93 113.25 91.976 113.25 89.928C113.25 88.9893 113.549 87.9653 114.146 86.856L146.146 31.56C147.085 29.8533 148.493 28.4027 150.37 27.208C152.333 26.0133 154.167 25.416 155.874 25.416H241.89C244.194 25.416 245.346 26.44 245.346 28.488C245.346 29.4267 245.047 30.4507 244.45 31.56L230.242 56.136C229.218 57.8427 227.767 59.2933 225.89 60.488C224.013 61.6827 222.221 62.28 220.514 62.28H177.506ZM178.53 49.992C177.847 51.1867 177.506 52.2107 177.506 53.064C177.506 55.112 178.701 56.136 181.09 56.136C182.797 56.136 184.589 55.5387 186.466 54.344C188.343 53.1493 189.794 51.6987 190.818 49.992L197.858 37.704C198.455 36.5947 198.754 35.5707 198.754 34.632C198.754 32.584 197.602 31.56 195.298 31.56C193.591 31.56 191.757 32.1573 189.794 33.352C187.917 34.5467 186.509 35.9973 185.57 37.704L178.53 49.992ZM316.292 25.416H347.012C349.401 25.416 350.596 26.44 350.596 28.488C350.596 29.3413 350.255 30.3653 349.572 31.56L317.7 86.856C316.676 88.5627 315.225 90.0133 313.348 91.208C311.471 92.4027 309.679 93 307.972 93H221.956C219.652 93 218.5 91.976 218.5 89.928C218.5 88.9893 218.799 87.9653 219.396 86.856L251.268 31.56C252.292 29.8533 253.743 28.4027 255.62 27.208C257.497 26.0133 259.289 25.416 260.996 25.416H291.716C294.105 25.416 295.3 26.44 295.3 28.488C295.3 29.3413 294.959 30.3653 294.276 31.56L265.988 80.712C265.305 81.9067 264.964 82.9307 264.964 83.784C264.964 85.832 266.159 86.856 268.548 86.856C270.255 86.856 272.047 86.2587 273.924 85.064C275.801 83.8693 277.252 82.4187 278.276 80.712L306.564 31.56C307.588 29.8533 309.039 28.4027 310.916 27.208C312.793 26.0133 314.585 25.416 316.292 25.416ZM263.684 19.272H349.7C351.321 19.272 353.071 18.6747 354.948 17.48C356.911 16.2853 358.404 14.8347 359.428 13.128L362.884 6.98399C363.567 5.78933 363.908 4.76533 363.908 3.91199C363.908 1.864 362.713 0.839996 360.324 0.839996H329.604C327.897 0.839996 326.105 1.43733 324.228 2.632C322.351 3.82666 320.9 5.27733 319.876 6.98399H320.004C318.98 8.69066 317.529 10.1413 315.652 11.336C313.775 12.5307 311.94 13.128 310.148 13.128C307.759 13.128 306.564 12.104 306.564 10.056C306.564 9.20266 306.905 8.17866 307.588 6.98399C308.271 5.78933 308.612 4.76533 308.612 3.91199C308.612 1.864 307.417 0.839996 305.028 0.839996H274.308C272.601 0.839996 270.767 1.43733 268.804 2.632C266.927 3.82666 265.519 5.27733 264.58 6.98399L261.124 13.128C260.441 14.3227 260.1 15.3467 260.1 16.2C260.1 18.248 261.295 19.272 263.684 19.272ZM422.95 86.856C422.011 88.5627 420.561 90.0133 418.598 91.208C416.721 92.4027 414.971 93 413.35 93H327.334C324.945 93 323.75 91.976 323.75 89.928C323.75 88.9893 324.049 87.9653 324.646 86.856L356.646 31.56C357.585 29.8533 358.993 28.4027 360.87 27.208C362.833 26.0133 364.667 25.416 366.374 25.416H452.39C454.694 25.416 455.846 26.44 455.846 28.488C455.846 29.4267 455.547 30.4507 454.95 31.56L447.782 43.848C446.502 46.0667 444.838 47.6027 442.79 48.456C440.827 49.224 438.865 49.8213 436.902 50.248C435.025 50.5893 433.403 50.9733 432.038 51.4C430.673 51.7413 429.99 52.5947 429.99 53.96C429.99 54.8133 430.417 55.368 431.27 55.624C432.123 55.7947 433.062 55.9653 434.086 56.136C435.11 56.2213 436.049 56.4773 436.902 56.904C437.755 57.2453 438.182 58.0133 438.182 59.208C438.182 60.0613 437.841 61.0853 437.158 62.28L422.95 86.856ZM392.486 43.848C391.889 44.9573 391.59 45.9813 391.59 46.92C391.59 48.968 392.742 49.992 395.046 49.992C396.753 49.992 398.545 49.3947 400.422 48.2C402.299 47.0053 403.75 45.5547 404.774 43.848L408.358 37.704C408.955 36.5947 409.254 35.5707 409.254 34.632C409.254 32.584 408.102 31.56 405.798 31.56C404.091 31.56 402.299 32.1573 400.422 33.352C398.545 34.5467 397.094 35.9973 396.07 37.704L392.486 43.848ZM371.238 80.712C370.641 81.8213 370.342 82.8453 370.342 83.784C370.342 85.832 371.494 86.856 373.798 86.856C375.505 86.856 377.297 86.2587 379.174 85.064C381.051 83.8693 382.502 82.4187 383.526 80.712L394.15 62.28C394.747 61.1707 395.046 60.1467 395.046 59.208C395.046 57.16 393.851 56.136 391.462 56.136C389.755 56.136 387.963 56.7333 386.086 57.928C384.209 59.1227 382.801 60.5733 381.862 62.28L371.238 80.712ZM557.512 25.416C559.901 25.416 561.096 26.44 561.096 28.488C561.096 29.4267 560.797 30.4507 560.2 31.56L528.2 86.856C527.176 88.5627 525.725 90.0133 523.848 91.208C521.971 92.4027 520.221 93 518.6 93H432.584C430.195 93 429 91.976 429 89.928C429 88.9893 429.299 87.9653 429.896 86.856L461.896 31.56C462.835 29.8533 464.243 28.4027 466.12 27.208C468.083 26.0133 469.875 25.416 471.496 25.416H557.512ZM513.608 37.704C514.205 36.5947 514.504 35.5707 514.504 34.632C514.504 32.584 513.352 31.56 511.048 31.56C509.341 31.56 507.507 32.1573 505.544 33.352C503.667 34.5467 502.259 35.9973 501.32 37.704L476.488 80.712C475.891 81.8213 475.592 82.8453 475.592 83.784C475.592 85.832 476.744 86.856 479.048 86.856C480.755 86.856 482.547 86.2587 484.424 85.064C486.301 83.8693 487.752 82.4187 488.776 80.712L513.608 37.704ZM662.762 25.416C665.151 25.416 666.346 26.44 666.346 28.488C666.346 29.4267 666.047 30.4507 665.45 31.56L633.45 86.856C632.426 88.5627 630.975 90.0133 629.098 91.208C627.221 92.4027 625.429 93 623.722 93H593.002C590.698 93 589.546 91.976 589.546 89.928C589.546 88.9893 589.845 87.9653 590.442 86.856L598.506 73.544C599.103 72.4347 599.402 71.4107 599.402 70.472C599.402 68.424 598.25 67.4 595.946 67.4H552.938C550.549 67.4 549.354 66.376 549.354 64.328C549.354 63.3893 549.653 62.3653 550.25 61.256L567.146 31.56C568.085 29.8533 569.493 28.4027 571.37 27.208C573.247 26.0133 575.039 25.416 576.746 25.416H607.466C609.855 25.416 611.05 26.44 611.05 28.488C611.05 29.4267 610.751 30.4507 610.154 31.56L596.842 55.112C596.245 56.2213 595.946 57.2453 595.946 58.184C595.946 60.232 597.098 61.256 599.402 61.256C601.109 61.256 602.901 60.6587 604.778 59.464C606.741 58.2693 608.191 56.8187 609.13 55.112L622.442 31.56C623.381 29.8533 624.789 28.4027 626.666 27.208C628.543 26.0133 630.335 25.416 632.042 25.416H662.762ZM768.268 25.416C770.572 25.416 771.724 26.44 771.724 28.488C771.724 29.4267 771.425 30.4507 770.828 31.56L738.7 86.856C737.676 88.5627 736.225 90.0133 734.348 91.208C732.471 92.4027 730.721 93 729.1 93H698.38C695.991 93 694.796 91.976 694.796 89.928C694.796 88.9893 695.095 87.9653 695.692 86.856L706.188 68.552C706.785 67.4427 707.084 66.4187 707.084 65.48C707.084 63.432 705.932 62.408 703.628 62.408C701.921 62.408 700.087 63.0053 698.124 64.2C696.247 65.3947 694.839 66.8453 693.9 68.552L683.404 86.856C682.465 88.5627 681.015 90.0133 679.052 91.208C677.175 92.4027 675.425 93 673.804 93H643.084C640.695 93 639.5 91.976 639.5 89.928C639.5 88.9893 639.799 87.9653 640.396 86.856L672.524 31.56C673.463 29.8533 674.828 28.4027 676.62 27.208C678.412 26.0133 680.289 25.416 682.252 25.416H712.972C715.276 25.416 716.428 26.44 716.428 28.488C716.428 29.4267 716.129 30.4507 715.532 31.56L704.78 49.992C704.183 51.1013 703.884 52.1253 703.884 53.064C703.884 55.112 705.036 56.136 707.34 56.136C709.047 56.136 710.839 55.5387 712.716 54.344C714.593 53.1493 716.044 51.6987 717.068 49.992L727.82 31.56C728.759 29.8533 730.124 28.4027 731.916 27.208C733.708 26.0133 735.585 25.416 737.548 25.416H768.268ZM873.39 25.416C875.694 25.416 876.846 26.44 876.846 28.488C876.846 29.4267 876.547 30.4507 875.95 31.56L843.95 86.856C842.926 88.5627 841.475 90.0133 839.598 91.208C837.721 92.4027 835.971 93 834.35 93H748.334C745.945 93 744.75 91.976 744.75 89.928C744.75 88.9893 745.049 87.9653 745.646 86.856L759.854 62.28C760.878 60.5733 762.329 59.1227 764.206 57.928C766.083 56.7333 767.875 56.136 769.582 56.136H812.59C814.297 56.136 816.089 55.5387 817.966 54.344C819.843 53.1493 821.294 51.6987 822.318 49.992L829.358 37.704C829.955 36.5947 830.254 35.5707 830.254 34.632C830.254 32.584 829.102 31.56 826.798 31.56C825.091 31.56 823.299 32.1573 821.422 33.352C819.545 34.5467 818.094 35.9973 817.07 37.704L813.486 43.848C812.462 45.5547 811.011 47.0053 809.134 48.2C807.257 49.3947 805.507 49.992 803.886 49.992H773.166C770.777 49.992 769.582 48.968 769.582 46.92C769.582 45.9813 769.881 44.9573 770.478 43.848L777.646 31.56C778.585 29.8533 779.95 28.4027 781.742 27.208C783.534 26.0133 785.411 25.416 787.374 25.416H873.39ZM811.694 68.424C812.291 67.3147 812.59 66.2907 812.59 65.352C812.59 63.304 811.395 62.28 809.006 62.28C807.043 62.28 805.166 62.8773 803.374 64.072C801.667 65.2667 800.345 66.7173 799.406 68.424L792.238 80.712C791.641 81.8213 791.342 82.8453 791.342 83.784C791.342 85.832 792.494 86.856 794.798 86.856C796.505 86.856 798.297 86.2587 800.174 85.064C802.051 83.8693 803.502 82.4187 804.526 80.712L811.694 68.424ZM914 73.416C914.256 72.648 914.384 71.9653 914.384 71.368C914.384 69.32 913.232 68.296 910.928 68.296C909.136 68.296 907.344 68.8933 905.552 70.088C903.76 71.2827 902.352 72.7333 901.328 74.44L893.904 86.856C892.795 88.648 891.344 90.1413 889.552 91.336C887.76 92.4453 886.011 93 884.304 93H853.584C851.195 93 850 91.976 850 89.928C850 88.9893 850.299 87.9653 850.896 86.856L861.776 68.296C862.8 66.5893 864.251 65.1387 866.128 63.944C868.005 62.7493 869.797 62.152 871.504 62.152H902.096C902.949 62.152 903.845 62.0667 904.784 61.896C905.808 61.64 906.704 61.3413 907.472 61C908.325 60.6587 909.008 60.2747 909.52 59.848C910.032 59.336 910.288 58.7813 910.288 58.184C910.288 57.2453 909.435 56.5627 907.728 56.136H874.832C872.528 56.136 871.376 55.112 871.376 53.064C871.376 52.1253 871.675 51.1013 872.272 49.992L882.896 31.56C883.835 29.8533 885.243 28.4027 887.12 27.208C889.083 26.0133 890.917 25.416 892.624 25.416H978.64C980.944 25.416 982.096 26.44 982.096 28.488C982.096 29.4267 981.797 30.4507 981.2 31.56L949.2 86.856C948.176 88.5627 946.725 90.0133 944.848 91.208C942.971 92.4027 941.179 93 939.472 93H908.752C906.448 93 905.296 91.976 905.296 89.928C905.296 88.9893 905.595 87.9653 906.192 86.856L914 73.416ZM918.864 43.848C918.181 45.0427 917.84 46.0667 917.84 46.92C917.84 48.968 919.035 49.992 921.424 49.992C923.045 49.992 924.795 49.3947 926.672 48.2C928.549 47.0053 930 45.5547 931.024 43.848L934.608 37.704C935.205 36.5947 935.504 35.5707 935.504 34.632C935.504 32.584 934.352 31.56 932.048 31.56C930.341 31.56 928.507 32.1573 926.544 33.352C924.667 34.5467 923.259 35.9973 922.32 37.704L918.864 43.848ZM866.512 134.344C865.232 136.563 863.867 137.672 862.416 137.672C861.648 137.672 861.008 137.288 860.496 136.52L843.6 107.592C843.003 106.739 842.704 105.587 842.704 104.136C842.704 102.003 843.216 100.04 844.24 98.248L859.984 71.112C860.923 69.4053 862.288 67.9547 864.08 66.76C865.872 65.5653 867.749 64.968 869.712 64.968H900.432C902.736 64.968 903.888 65.992 903.888 68.04C903.888 68.9787 903.589 70.0027 902.992 71.112L866.512 134.344Z" fill="black"/>
</svg>